<svg width="500" height="150"  viewBox="0 0 3086 1012" fill="none" xmlns="http://www.w3.org/2000/svg">
<path d="M147.6 690.8C124.4 690.8 102.2 688.2 81 683C60.2 677.8 42.2 670.8 27 662L34.2 581.6C52.2 592.8 71 601.6 90.6 608C110.6 614 129 617 145.8 617C165 617 180.6 613 192.6 605C204.6 597 210.6 586.4 210.6 573.2C210.6 562.4 206.6 554.2 198.6 548.6C190.6 542.6 178 536.2 160.8 529.4L146.4 523.4C144.4 522.6 142.2 521.8 139.8 521C137.4 519.8 134.6 518.6 131.4 517.4C109 508.2 91 499.6 77.4 491.6C63.8 483.2 52 471.6 42 456.8C32.4 442 27.6 422.8 27.6 399.2C27.6 360.8 40.6 330.6 66.6 308.6C92.6 286.6 128.8 275.6 175.2 275.6C210.4 275.6 246.4 282.8 283.2 297.2L270 376.4C255.2 368 239.2 361.4 222 356.6C205.2 351.8 189.2 349.4 174 349.4C155.2 349.4 140.6 353.2 130.2 360.8C119.8 368 114.6 377.8 114.6 390.2C114.6 401 118.2 409.4 125.4 415.4C132.6 421.4 144.2 427.8 160.2 434.6L184.8 444.2C208 453 227.2 461.6 242.4 470C257.6 478.4 270.6 490.6 281.4 506.6C292.2 522.2 297.6 542.6 297.6 567.8C297.6 606.6 284.4 636.8 258 658.4C231.6 680 194.8 690.8 147.6 690.8ZM366.609 283.4H453.609V438.2L583.809 283.4H687.609L523.209 473L679.209 683H573.609L453.609 521.6V683H366.609V283.4ZM857.55 692C813.55 692 779.55 681.6 755.55 660.8C731.55 640 719.55 611 719.55 573.8C719.55 551 724.15 530.6 733.35 512.6C742.55 494.2 755.95 478.8 773.55 466.4C747.95 442.8 735.15 414.6 735.15 381.8C735.15 359 740.95 339.6 752.55 323.6C764.15 307.6 779.75 295.4 799.35 287C818.95 278.6 840.75 274.4 864.75 274.4C900.35 274.4 929.95 283.4 953.55 301.4C977.15 319.4 988.95 344 988.95 375.2C988.95 393.2 984.95 410.4 976.95 426.8C968.95 442.8 957.95 457.4 943.95 470.6C962.35 482.2 976.75 496 987.15 512C997.95 528 1003.35 547.8 1003.35 571.4C1003.35 607.8 990.35 637 964.35 659C938.35 681 902.75 692 857.55 692ZM886.95 441.2C894.15 434.4 899.75 426.4 903.75 417.2C907.75 407.6 909.75 398 909.75 388.4C909.75 373.6 904.75 362.6 894.75 355.4C885.15 347.8 873.75 344 860.55 344C848.55 344 838.15 347 829.35 353C820.95 359 816.75 367.8 816.75 379.4C816.75 393 822.35 404 833.55 412.4C845.15 420.8 862.95 430.4 886.95 441.2ZM863.55 621.8C881.95 621.8 896.15 618 906.15 610.4C916.55 602.4 921.75 591.6 921.75 578C921.75 562.8 915.95 550.8 904.35 542C893.15 532.8 875.35 522.8 850.95 512L828.75 501.8C818.75 511 811.15 521.4 805.95 533C801.15 544.2 798.75 555.4 798.75 566.6C798.75 583.8 804.35 597.4 815.55 607.4C827.15 617 843.15 621.8 863.55 621.8ZM1157.28 359H1048.08V283.4H1352.88V359H1244.88V683H1157.28V359ZM1578.46 690.8C1539.26 690.8 1504.66 682.2 1474.66 665C1444.66 647.8 1421.26 623.6 1404.46 592.4C1388.06 561.2 1379.86 525.4 1379.86 485C1379.86 444.2 1388.06 408.2 1404.46 377C1420.86 345.8 1444.06 321.6 1474.06 304.4C1504.06 287.2 1538.86 278.6 1578.46 278.6C1617.66 278.6 1652.26 287.2 1682.26 304.4C1712.26 321.2 1735.46 345 1751.86 375.8C1768.26 406.6 1776.46 442.2 1776.46 482.6C1776.46 523.8 1768.26 560.2 1751.86 591.8C1735.46 623 1712.26 647.4 1682.26 665C1652.26 682.2 1617.66 690.8 1578.46 690.8ZM1578.46 614.6C1611.26 614.6 1637.46 602.8 1657.06 579.2C1677.06 555.6 1687.06 524.2 1687.06 485C1687.06 459.4 1682.46 436.8 1673.26 417.2C1664.46 397.2 1651.66 382 1634.86 371.6C1618.46 360.8 1599.66 355.4 1578.46 355.4C1557.26 355.4 1538.26 360.8 1521.46 371.6C1505.06 382 1492.26 397.2 1483.06 417.2C1474.26 436.8 1469.86 459.4 1469.86 485C1469.86 510.6 1474.26 533.2 1483.06 552.8C1492.26 572.4 1505.06 587.6 1521.46 598.4C1537.86 609.2 1556.86 614.6 1578.46 614.6ZM2031.98 690.8C1992.78 690.8 1958.18 682.2 1928.18 665C1898.18 647.8 1874.78 623.6 1857.98 592.4C1841.58 561.2 1833.38 525.4 1833.38 485C1833.38 444.2 1841.58 408.2 1857.98 377C1874.38 345.8 1897.58 321.6 1927.58 304.4C1957.58 287.2 1992.38 278.6 2031.98 278.6C2071.18 278.6 2105.78 287.2 2135.78 304.4C2165.78 321.2 2188.98 345 2205.38 375.8C2221.78 406.6 2229.98 442.2 2229.98 482.6C2229.98 523.8 2221.78 560.2 2205.38 591.8C2188.98 623 2165.78 647.4 2135.78 665C2105.78 682.2 2071.18 690.8 2031.98 690.8ZM2031.98 614.6C2064.78 614.6 2090.98 602.8 2110.58 579.2C2130.58 555.6 2140.58 524.2 2140.58 485C2140.58 459.4 2135.98 436.8 2126.78 417.2C2117.98 397.2 2105.18 382 2088.38 371.6C2071.98 360.8 2053.18 355.4 2031.98 355.4C2010.78 355.4 1991.78 360.8 1974.98 371.6C1958.58 382 1945.78 397.2 1936.58 417.2C1927.78 436.8 1923.38 459.4 1923.38 485C1923.38 510.6 1927.78 533.2 1936.58 552.8C1945.78 572.4 1958.58 587.6 1974.98 598.4C1991.38 609.2 2010.38 614.6 2031.98 614.6ZM2296.1 283.4H2398.1L2563.7 563.6V283.4H2643.5V683H2542.7L2375.9 401V683H2296.1V283.4ZM2822.15 516.8L2688.35 283.4H2786.15L2867.15 441.2L2947.55 283.4H3043.55L2909.15 516.8V683H2822.15V516.8Z" fill="black"/>
<ellipse cx="1581" cy="489" rx="212.261" ry="212.261" fill="#D9D9D9"/>
<circle cx="1581" cy="489" r="212.5" stroke="black" stroke-width="5"/>
<circle cx="1581.46" cy="489.457" r="200.849" fill="white"/>
<path d="M1704.7 489.456C1704.7 557.525 1649.52 612.705 1581.46 612.705C1513.39 612.705 1458.21 557.525 1458.21 489.456C1458.21 421.388 1513.39 366.208 1581.46 366.208C1649.52 366.208 1704.7 421.388 1704.7 489.456Z" fill="#D9D9D9"/>
<path d="M1696.05 489.456C1696.05 552.746 1644.75 604.053 1581.46 604.053C1518.17 604.053 1466.86 552.746 1466.86 489.456C1466.86 426.167 1518.17 374.86 1581.46 374.86C1644.75 374.86 1696.05 426.167 1696.05 489.456Z" stroke="black" stroke-width="10"/>
<path d="M1427.61 486.716L1429.56 472.345L1431.52 472.611C1435.21 473.111 1437.87 473.028 1439.49 472.362C1441.12 471.696 1442.08 470.333 1442.36 468.271C1442.58 466.617 1442.19 465.233 1441.19 464.122C1440.16 463.006 1438.66 462.315 1436.68 462.047C1433.43 461.606 1429.99 463.519 1426.37 467.788C1425.74 468.471 1425.27 468.999 1424.96 469.37C1424.85 469.503 1424.66 469.728 1424.38 470.045C1419.28 475.77 1415.56 479.256 1413.2 480.503C1411.43 481.386 1409.48 481.979 1407.37 482.284C1405.26 482.589 1403 482.578 1400.59 482.251C1394.73 481.456 1390.36 479.133 1387.48 475.284C1384.6 471.434 1383.56 466.534 1384.37 460.583C1385.25 454.109 1387.56 449.396 1391.3 446.444C1395.05 443.464 1400.03 442.395 1406.24 443.238C1406.5 443.273 1406.86 443.337 1407.32 443.429C1407.78 443.521 1408.14 443.585 1408.4 443.62L1406.5 457.686L1405.67 457.573C1402.74 457.176 1400.45 457.339 1398.82 458.063C1397.18 458.758 1396.25 459.977 1396.01 461.718C1395.81 463.199 1396.19 464.462 1397.14 465.508C1398.06 466.55 1399.4 467.189 1401.14 467.425C1403.98 467.811 1407.35 465.666 1411.24 460.99C1411.97 460.143 1412.53 459.495 1412.92 459.045C1413.21 458.67 1413.65 458.153 1414.24 457.494C1418.47 452.48 1421.87 449.365 1424.46 448.149C1426.13 447.4 1427.99 446.913 1430.03 446.687C1432.04 446.428 1434.2 446.454 1436.49 446.765C1443.2 447.675 1448.13 450.118 1451.29 454.094C1454.44 458.07 1455.58 463.295 1454.7 469.769C1453.78 476.562 1451.36 481.437 1447.44 484.394C1443.5 487.318 1438.1 488.316 1431.25 487.386C1430.81 487.327 1430.36 487.266 1429.9 487.203C1429.41 487.107 1428.65 486.945 1427.61 486.716Z" fill="black"/>
<path d="M1460.77 438.301L1402.38 404.094L1410.37 390.443L1434.6 404.637L1416.35 380.243L1424.52 366.289L1442.66 393.925L1483.09 400.193L1474.7 414.526L1449.38 409.32L1453.22 415.543L1468.77 424.65L1460.77 438.301Z" fill="black"/>
<path d="M1470.29 348.282C1471.78 350.245 1473.35 351.532 1475.03 352.141C1476.7 352.75 1478.15 352.586 1479.39 351.65C1480.65 350.696 1481.22 349.332 1481.09 347.557C1480.98 345.765 1480.19 343.887 1478.71 341.923C1477.22 339.96 1475.71 338.735 1474.17 338.248C1472.63 337.721 1471.18 337.969 1469.83 338.994C1468.49 340 1467.87 341.315 1467.96 342.938C1468.03 344.537 1468.81 346.319 1470.29 348.282ZM1487.81 371.896C1489.8 374.537 1491.65 376.247 1493.34 377.026C1495.05 377.788 1496.63 377.621 1498.08 376.526C1499.58 375.395 1500.2 373.934 1499.95 372.142C1499.72 370.332 1498.57 368.06 1496.5 365.325C1494.35 362.474 1492.44 360.682 1490.79 359.95C1489.14 359.176 1487.56 359.355 1486.07 360.485C1484.55 361.633 1483.92 363.115 1484.2 364.931C1484.47 366.746 1485.67 369.068 1487.81 371.896ZM1473.2 362.993C1470.27 363.15 1467.62 362.677 1465.24 361.572C1462.87 360.426 1460.76 358.626 1458.9 356.172C1455.53 351.708 1454.22 347.207 1454.98 342.669C1455.76 338.113 1458.52 334.043 1463.27 330.457C1468.01 326.871 1472.67 325.334 1477.24 325.844C1481.84 326.337 1485.82 328.816 1489.2 333.28C1491.05 335.735 1492.19 338.268 1492.62 340.879C1493.06 343.45 1492.8 346.123 1491.85 348.898C1495.01 348.605 1498.03 349.203 1500.92 350.693C1503.82 352.141 1506.45 354.443 1508.84 357.599C1512.71 362.717 1514.31 367.771 1513.63 372.76C1512.98 377.731 1510.13 382.124 1505.08 385.94C1500.08 389.72 1495.1 391.244 1490.14 390.512C1485.19 389.739 1480.79 386.805 1476.93 381.709C1474.55 378.554 1473.04 375.395 1472.42 372.233C1471.77 369.048 1472.03 365.968 1473.2 362.993Z" fill="black"/>
<path d="M1540.4 365.985L1525.94 313.402L1513.74 316.758L1510.25 304.089L1550.59 292.994L1554.07 305.663L1541.23 309.194L1555.7 361.777L1540.4 365.985Z" fill="black"/>
<path d="M1610.19 334.398L1611.79 322.286C1612.76 314.85 1612.89 310.198 1612.16 308.329C1611.47 306.434 1609.88 305.325 1607.41 304.999C1605 304.682 1603.21 305.362 1602.05 307.04C1600.88 308.719 1599.81 313.232 1598.85 320.581L1597.25 332.693C1596.29 339.954 1596.16 344.576 1596.84 346.557C1597.53 348.51 1599.11 349.648 1601.58 349.974C1604.02 350.295 1605.82 349.617 1606.99 347.938C1608.15 346.26 1609.22 341.746 1610.19 334.398ZM1582.06 324.53C1583.12 316.456 1584.19 310.597 1585.26 306.956C1586.33 303.315 1587.67 300.537 1589.28 298.621C1591.59 295.911 1594.39 294.049 1597.69 293.035C1600.99 291.993 1604.81 291.758 1609.17 292.332C1613.56 292.91 1617.18 294.126 1620.04 295.98C1622.93 297.809 1625.14 300.331 1626.67 303.546C1627.78 305.85 1628.38 308.9 1628.47 312.694C1628.57 316.489 1628.08 322.409 1627.02 330.454C1625.96 338.471 1624.9 344.314 1623.82 347.985C1622.75 351.626 1621.38 354.415 1619.71 356.352C1617.43 359.037 1614.65 360.901 1611.35 361.943C1608.08 362.99 1604.26 363.226 1599.91 362.652C1595.55 362.078 1591.91 360.86 1589 358.999C1586.08 357.137 1583.86 354.613 1582.33 351.427C1581.27 349.159 1580.69 346.128 1580.6 342.334C1580.51 338.54 1580.99 332.605 1582.06 324.53Z" fill="black"/>
<path d="M1672.97 361.363L1679.57 351.08C1683.62 344.767 1685.71 340.609 1685.84 338.608C1686.02 336.597 1685.06 334.92 1682.96 333.575C1680.92 332.263 1679.01 332.117 1677.24 333.14C1675.47 334.163 1672.58 337.794 1668.58 344.033L1661.99 354.316C1658.03 360.481 1655.94 364.606 1655.72 366.69C1655.51 368.75 1656.46 370.452 1658.55 371.796C1660.62 373.125 1662.54 373.278 1664.31 372.255C1666.08 371.232 1668.97 367.602 1672.97 361.363ZM1651.71 340.467C1656.11 333.611 1659.56 328.763 1662.08 325.923C1664.6 323.083 1666.99 321.139 1669.27 320.091C1672.51 318.62 1675.84 318.126 1679.25 318.611C1682.68 319.07 1686.24 320.486 1689.94 322.859C1693.67 325.247 1696.43 327.888 1698.23 330.782C1700.06 333.667 1700.99 336.889 1701.01 340.449C1701.03 343.008 1700.28 346.024 1698.75 349.497C1697.22 352.97 1694.26 358.122 1689.88 364.952C1685.52 371.759 1682.07 376.594 1679.53 379.459C1677.02 382.299 1674.59 384.239 1672.25 385.28C1669.05 386.743 1665.73 387.244 1662.3 386.785C1658.9 386.341 1655.35 384.933 1651.65 382.56C1647.95 380.188 1645.18 377.539 1643.33 374.613C1641.48 371.688 1640.54 368.458 1640.51 364.923C1640.52 362.42 1641.28 359.432 1642.82 355.959C1644.35 352.486 1647.31 347.322 1651.71 340.467Z" fill="black"/>
<path d="M1679.85 403.377L1736.95 367.048L1745.79 380.951L1717.62 414.448C1723.27 410.229 1728.18 406.64 1732.34 403.681C1736.51 400.747 1740.08 398.336 1743.05 396.449L1752.02 390.74L1759.59 402.641L1702.5 438.971L1693.63 425.03L1722.82 390.775C1718.42 394.273 1714.07 397.561 1709.78 400.639C1705.52 403.726 1701.31 406.599 1697.13 409.257L1687.49 415.39L1679.85 403.377Z" fill="black"/>
<path d="M1707.81 462.573L1736.17 458.17L1772.3 436.818L1774.91 453.624L1754.76 463.377L1776.92 466.608L1779.56 483.587L1738.66 474.194L1710.3 478.597L1707.81 462.573Z" fill="black"/>
<path d="M1693.75 489C1693.75 551.27 1643.27 601.749 1581 601.749C1518.73 601.749 1468.25 551.27 1468.25 489C1468.25 426.73 1518.73 376.25 1581 376.25C1643.27 376.25 1693.75 426.73 1693.75 489Z" fill="black"/>
<path d="M1418.4 557.458L1425.97 570.947L1424.13 571.979C1420.67 573.922 1418.46 575.7 1417.5 577.313C1416.54 578.925 1416.61 580.699 1417.69 582.634C1418.56 584.187 1419.78 585.115 1421.35 585.418C1422.95 585.706 1424.67 585.329 1426.52 584.289C1429.57 582.576 1431.27 578.738 1431.62 572.775C1431.71 571.791 1431.77 571.04 1431.8 570.521C1431.81 570.339 1431.83 570.023 1431.86 569.573C1432.52 561.427 1433.45 556.065 1434.66 553.489C1435.61 551.597 1436.88 549.843 1438.48 548.228C1440.08 546.612 1442.01 545.169 1444.28 543.9C1449.78 540.81 1454.99 539.98 1459.92 541.409C1464.84 542.838 1468.87 546.346 1472.01 551.933C1475.42 558.009 1476.48 563.506 1475.19 568.423C1473.91 573.367 1470.36 577.476 1464.53 580.749C1464.28 580.887 1463.94 581.064 1463.48 581.282C1463.03 581.499 1462.68 581.677 1462.44 581.814L1455.03 568.611L1455.81 568.176C1458.56 566.631 1460.4 565.025 1461.32 563.357C1462.27 561.717 1462.28 560.079 1461.36 558.444C1460.58 557.055 1459.45 556.22 1457.97 555.941C1456.51 555.647 1454.97 555.959 1453.33 556.877C1450.66 558.376 1449.17 562.365 1448.87 568.843C1448.79 570.037 1448.73 570.949 1448.69 571.58C1448.68 572.084 1448.64 572.807 1448.56 573.748C1448.18 580.734 1447.28 585.576 1445.85 588.275C1444.91 589.985 1443.65 591.591 1442.05 593.095C1440.5 594.61 1438.65 595.972 1436.5 597.18C1430.21 600.714 1424.44 601.801 1419.19 600.443C1413.95 599.085 1409.63 595.368 1406.22 589.291C1402.64 582.914 1401.57 577.208 1403 572.172C1404.48 567.148 1408.44 562.831 1414.87 559.222C1415.28 558.992 1415.7 558.755 1416.14 558.51C1416.62 558.277 1417.37 557.927 1418.4 557.458Z" fill="black"/>
<path d="M1452.93 642.445L1488.67 596.551L1478.02 588.255L1486.64 577.198L1521.84 604.619L1513.23 615.677L1502.02 606.949L1466.28 652.843L1452.93 642.445Z" fill="black"/>
<path d="M1539.46 641.114C1539.73 641.182 1540.08 641.283 1540.5 641.418C1540.94 641.561 1541.27 641.658 1541.49 641.711C1544.89 642.549 1547.45 642.457 1549.18 641.436C1550.95 640.423 1552.23 638.293 1553.03 635.046C1553.77 632.043 1553.58 629.743 1552.46 628.147C1551.38 626.529 1549.14 625.3 1545.74 624.462C1545.53 624.41 1545.19 624.343 1544.73 624.261C1544.3 624.186 1543.94 624.115 1543.67 624.048L1539.46 641.114ZM1513.17 678.032L1530.46 607.945L1548.89 612.492C1554.93 613.982 1559.24 615.351 1561.83 616.601C1564.42 617.821 1566.4 619.323 1567.76 621.108C1569.36 623.24 1570.35 625.624 1570.73 628.261C1571.14 630.905 1570.94 633.88 1570.12 637.187C1569.13 641.222 1567.58 644.43 1565.48 646.808C1563.41 649.195 1560.67 650.901 1557.27 651.927C1561.78 655.422 1563.13 661.406 1561.33 669.878C1561.3 669.999 1561.29 670.075 1561.28 670.105C1561.09 670.992 1560.81 672.274 1560.43 673.95C1558.6 681.869 1558.69 687.136 1560.68 689.752L1541.52 685.026C1541.46 683.465 1541.51 681.869 1541.69 680.239C1541.9 678.586 1542.23 676.85 1542.68 675.029C1542.96 673.907 1543.32 672.564 1543.77 671.001C1544.23 669.408 1544.52 668.369 1544.64 667.883C1545.69 663.605 1545.86 660.539 1545.12 658.684C1544.39 656.83 1542.57 655.543 1539.65 654.825L1536.28 653.994L1529.37 682.029L1513.17 678.032Z" fill="black"/>
<path d="M1603.37 688.232L1589.3 617.428L1627.83 609.773L1630.56 623.52L1608.49 627.905L1611.08 640.916L1631.44 636.87L1634.27 651.076L1613.9 655.123L1616.97 670.571L1639.04 666.187L1641.9 680.577L1603.37 688.232Z" fill="black"/>
<path d="M1679.37 663.729L1638.63 604.135L1671.06 581.967L1678.97 593.538L1660.4 606.235L1667.88 617.187L1685.02 605.468L1693.2 617.425L1676.06 629.144L1684.94 642.146L1703.52 629.448L1711.8 641.561L1679.37 663.729Z" fill="black"/>
<path d="M1744.67 603.727L1695.94 571.961L1688.57 583.27L1676.82 575.617L1701.19 538.233L1712.93 545.886L1705.18 557.785L1753.91 589.55L1744.67 603.727Z" fill="black"/>
<path d="M1690.97 500.412C1691.28 476.997 1660.3 460.165 1653.69 431.462C1645.36 395.255 1609.24 379.902 1581.46 379.902C1553.67 379.902 1517.56 395.255 1509.22 431.462C1502.61 460.165 1471.63 476.997 1471.94 500.412L1471.9 500.408C1471.9 500.408 1471.9 523.185 1487.43 543.24L1490.62 536.061C1490.62 536.061 1491.08 547.14 1500.44 559.714L1503.41 548.641C1503.41 548.641 1503.86 565.41 1518.47 581.281C1518.47 581.281 1519.71 570.26 1521.21 566.301C1521.21 566.301 1529.43 583.669 1548.59 595.355C1548.59 595.355 1546.08 590.685 1548.55 585.357C1560.99 593.577 1572.68 599.011 1581.46 599.011C1590.23 599.011 1601.92 593.577 1614.36 585.36C1616.83 590.688 1614.32 595.359 1614.32 595.359C1633.49 583.673 1641.7 566.305 1641.7 566.305C1643.2 570.264 1644.46 581.285 1644.46 581.285C1659.06 565.41 1659.51 548.645 1659.51 548.645L1662.48 559.717C1671.84 547.148 1672.29 536.064 1672.29 536.064L1675.49 543.244C1691.01 523.185 1691.01 500.408 1691.01 500.408L1690.97 500.412ZM1542.89 430.63C1554.27 425.74 1566.33 434.979 1581.46 434.979C1596.59 434.979 1608.64 425.74 1620.03 430.63C1632.73 436.085 1620.03 430.63 1606.84 435.129C1593.66 439.628 1588.15 440.164 1581.46 440.164C1574.78 440.164 1569.26 439.631 1556.08 435.129C1542.9 430.626 1530.2 436.085 1542.89 430.63ZM1523.59 440.234C1540.67 433.73 1558.76 446.04 1581.46 446.04C1604.16 446.04 1622.24 433.73 1639.32 440.234C1658.36 447.494 1639.32 440.234 1619.54 446.234C1599.77 452.234 1591.48 452.935 1581.46 452.935C1571.44 452.935 1563.15 452.234 1543.37 446.234C1523.59 440.234 1504.56 447.497 1523.59 440.234ZM1619.8 507.712C1611.38 505.302 1606.3 504.717 1603.52 505.389C1605.86 508.143 1609.24 510.98 1614.91 512.963C1630.93 518.569 1626.2 531.478 1615.44 533.106C1615.81 533.804 1616.13 534.48 1616.38 535.1C1620.9 546.779 1625.28 580.755 1581.46 580.755C1537.63 580.755 1542.01 546.779 1546.53 535.1C1546.77 534.483 1547.1 533.811 1547.46 533.106C1536.72 531.47 1532 518.569 1548.01 512.963C1554.3 510.757 1557.79 507.504 1560.16 504.484C1557.57 503.629 1552.35 504.407 1543.11 507.712C1514.15 518.076 1484.57 481.017 1510.25 463.901C1535.92 446.781 1563.65 467.553 1581.45 467.553C1599.25 467.553 1626.99 446.781 1652.66 463.901C1678.34 481.017 1650 516.378 1619.8 507.712Z" fill="white"/>
<path d="M1559.18 527.972C1571.2 527.559 1569.14 515.059 1568.69 509.362C1568.69 509.362 1566.77 516.75 1558.33 517.038C1545.68 517.48 1548.59 528.352 1559.18 527.972ZM1594.22 509.362C1593.77 515.059 1591.71 527.556 1603.73 527.972C1614.32 528.352 1617.24 517.48 1604.58 517.038C1596.15 516.754 1594.22 509.362 1594.22 509.362Z" fill="white"/>
<path d="M1581.46 553.367C1598.84 553.367 1612.93 552.549 1612.93 551.541C1612.93 550.532 1598.84 549.715 1581.46 549.715C1564.07 549.715 1549.98 550.532 1549.98 551.541C1549.98 552.549 1564.07 553.367 1581.46 553.367Z" fill="white"/>
<path d="M1581.46 474.4C1542.13 474.4 1510.25 475.623 1510.25 477.124C1510.25 477.796 1516.5 478.41 1526.85 478.881C1528.14 489.387 1537.37 497.552 1548.59 497.552C1559.47 497.552 1568.48 489.869 1570.19 479.826C1577.7 479.879 1585.22 479.879 1592.73 479.826C1594.44 489.869 1603.45 497.552 1614.32 497.552C1625.54 497.552 1634.78 489.383 1636.07 478.881C1646.42 478.406 1652.67 477.792 1652.67 477.124C1652.67 475.623 1620.78 474.4 1581.46 474.4ZM1548.59 488.284C1543.11 488.284 1538.61 484.38 1537.8 479.286C1544.2 479.48 1551.45 479.633 1559.33 479.728C1558.35 484.607 1553.92 488.284 1548.59 488.284ZM1614.32 488.284C1608.99 488.284 1604.56 484.607 1603.58 479.728C1611.46 479.633 1618.71 479.48 1625.11 479.286C1624.3 484.377 1619.81 488.284 1614.32 488.284Z" fill="white"/>
<g clip-path="url(#clip0_116_75)">
<path fill-rule="evenodd" clip-rule="evenodd" d="M1742.05 507.333C1741.98 507.175 1741.86 507.041 1741.71 506.947C1741.57 506.853 1741.4 506.803 1741.22 506.803C1741.05 506.803 1740.88 506.853 1740.73 506.947C1740.58 507.041 1740.47 507.175 1740.39 507.333L1737.77 513.012L1731.56 513.748C1731.39 513.769 1731.23 513.839 1731.09 513.949C1730.96 514.06 1730.86 514.207 1730.8 514.373C1730.75 514.539 1730.74 514.716 1730.79 514.885C1730.83 515.054 1730.92 515.207 1731.05 515.325L1735.64 519.57L1734.42 525.705C1734.39 525.876 1734.41 526.054 1734.47 526.216C1734.53 526.378 1734.64 526.519 1734.78 526.621C1734.93 526.724 1735.09 526.784 1735.27 526.794C1735.44 526.804 1735.61 526.765 1735.77 526.68L1741.22 523.625L1746.68 526.68C1746.83 526.765 1747.01 526.805 1747.18 526.795C1747.35 526.785 1747.52 526.725 1747.66 526.622C1747.8 526.519 1747.91 526.378 1747.98 526.216C1748.04 526.053 1748.06 525.876 1748.02 525.705L1746.8 519.571L1751.39 515.325C1751.52 515.207 1751.61 515.054 1751.66 514.885C1751.7 514.716 1751.7 514.539 1751.64 514.373C1751.59 514.207 1751.49 514.06 1751.35 513.949C1751.22 513.839 1751.05 513.769 1750.88 513.748L1744.67 513.011L1742.05 507.333Z" fill="#E0463D"/>
</g>
<g clip-path="url(#clip1_116_75)">
<path fill-rule="evenodd" clip-rule="evenodd" d="M1425.26 507.333C1425.18 507.175 1425.07 507.041 1424.92 506.947C1424.77 506.853 1424.6 506.803 1424.43 506.803C1424.25 506.803 1424.08 506.853 1423.94 506.947C1423.79 507.041 1423.67 507.175 1423.6 507.333L1420.98 513.012L1414.77 513.748C1414.6 513.769 1414.43 513.839 1414.3 513.949C1414.16 514.06 1414.06 514.207 1414.01 514.373C1413.96 514.539 1413.95 514.716 1413.99 514.885C1414.04 515.054 1414.13 515.207 1414.26 515.325L1418.85 519.57L1417.63 525.705C1417.6 525.876 1417.61 526.054 1417.68 526.216C1417.74 526.378 1417.85 526.519 1417.99 526.621C1418.13 526.724 1418.3 526.784 1418.47 526.794C1418.65 526.804 1418.82 526.765 1418.97 526.68L1424.43 523.625L1429.89 526.68C1430.04 526.765 1430.21 526.805 1430.39 526.795C1430.56 526.785 1430.73 526.725 1430.87 526.622C1431.01 526.519 1431.12 526.378 1431.18 526.216C1431.25 526.053 1431.26 525.876 1431.23 525.705L1430.01 519.571L1434.6 515.325C1434.73 515.207 1434.82 515.054 1434.86 514.885C1434.91 514.716 1434.9 514.539 1434.85 514.373C1434.79 514.207 1434.69 514.06 1434.56 513.949C1434.42 513.839 1434.26 513.769 1434.09 513.748L1427.88 513.011L1425.26 507.333Z" fill="#E0463D"/>
</g>
<defs>
<clipPath id="clip0_116_75">
<rect width="21.9108" height="21.9108" fill="white" transform="translate(1730.27 505.89)"/>
</clipPath>
<clipPath id="clip1_116_75">
<rect width="21.9108" height="21.9108" fill="white" transform="translate(1413.47 505.89)"/>
</clipPath>
</defs>
</svg>
