<svg width="471" height="475" viewBox="0 0 471 475" fill="none" xmlns="http://www.w3.org/2000/svg">
<circle cx="235.5" cy="235.5" r="232.5" fill="#D9D9D9"/>
<circle cx="235.5" cy="235.5" r="233" stroke="black" stroke-width="5"/>
<circle cx="236" cy="236" r="220" fill="white"/>
<path d="M371 236C371 310.558 310.558 371 236 371C161.442 371 101 310.558 101 236C101 161.442 161.442 101 236 101C310.558 101 371 161.442 371 236Z" fill="#D9D9D9"/>
<circle cx="236" cy="236" r="126" stroke="black" stroke-width="10"/>
<path d="M66.819 233.237L68.7685 218.867L70.7281 219.133C74.415 219.633 77.0724 219.55 78.7001 218.884C80.3279 218.217 81.2816 216.854 81.5612 214.793C81.7857 213.138 81.3968 211.755 80.3946 210.643C79.3633 209.527 77.8606 208.836 75.8865 208.568C72.6351 208.127 69.1972 210.041 65.5729 214.309C64.948 214.993 64.4773 215.52 64.1609 215.891C64.0541 216.025 63.8609 216.25 63.5814 216.566C58.4883 222.291 54.7632 225.777 52.4062 227.024C50.6308 227.907 48.6876 228.501 46.5767 228.806C44.4658 229.111 42.2055 229.1 39.7959 228.773C33.9317 227.977 29.5607 225.655 26.6829 221.805C23.8051 217.956 22.7699 213.055 23.5773 207.104C24.4556 200.63 26.7653 195.917 30.5066 192.966C34.2519 189.985 39.2308 188.916 45.4434 189.759C45.7047 189.794 46.0656 189.858 46.5262 189.95C46.9867 190.042 47.3476 190.106 47.6089 190.141L45.7008 204.207L44.8734 204.095C41.9413 203.697 39.6574 203.86 38.0217 204.584C36.39 205.279 35.456 206.498 35.2197 208.24C35.0189 209.72 35.3945 210.983 36.3465 212.029C37.2695 213.071 38.602 213.71 40.3438 213.946C43.1889 214.332 46.5547 212.187 50.4412 207.511C51.1769 206.665 51.7379 206.016 52.1242 205.566C52.4116 205.191 52.8513 204.674 53.4433 204.015C57.6713 199.001 61.08 195.886 63.6693 194.671C65.3379 193.921 67.1927 193.434 69.2338 193.208C71.2497 192.949 73.4044 192.976 75.6979 193.287C82.404 194.197 87.3352 196.639 90.4915 200.615C93.6478 204.591 94.7868 209.816 93.9085 216.29C92.9869 223.084 90.5664 227.959 86.647 230.916C82.7025 233.84 77.3046 234.837 70.4533 233.907C70.0178 233.848 69.5678 233.787 69.1033 233.724C68.6138 233.628 67.8523 233.466 66.819 233.237Z" fill="black"/>
<path d="M101.11 178.994L42.7157 144.787L50.712 131.137L74.942 145.33L56.6871 120.937L64.8612 106.983L82.9994 134.618L123.433 140.886L115.037 155.219L89.7185 150.014L93.5599 156.236L109.107 165.343L101.11 178.994Z" fill="black"/>
<path d="M113.947 83.9849C115.431 85.9483 117.009 87.2345 118.681 87.8437C120.353 88.4528 121.809 88.2893 123.048 87.3531C124.31 86.3993 124.876 85.0349 124.747 83.26C124.64 81.4674 123.845 79.5894 122.362 77.6261C120.878 75.6627 119.365 74.4378 117.822 73.9512C116.285 73.4236 114.839 73.672 113.483 74.6965C112.151 75.7033 111.528 77.0181 111.616 78.6408C111.687 80.2402 112.464 82.0215 113.947 83.9849ZM131.462 107.599C133.458 110.24 135.301 111.95 136.992 112.729C138.705 113.491 140.287 113.324 141.736 112.229C143.232 111.098 143.854 109.637 143.601 107.845C143.372 106.035 142.224 103.763 140.157 101.028C138.002 98.1767 136.097 96.3848 134.442 95.6525C132.793 94.8792 131.22 95.0578 129.724 96.1883C128.205 97.3364 127.581 98.8182 127.851 100.634C128.121 102.449 129.325 104.771 131.462 107.599ZM116.857 98.6961C113.928 98.8532 111.275 98.3795 108.898 97.2749C106.527 96.1292 104.414 94.3293 102.559 91.8751C99.1853 87.4108 97.8769 82.9097 98.6339 78.3717C99.4141 73.8161 102.177 69.7455 106.921 66.1598C111.666 62.5741 116.325 61.0366 120.897 61.5473C125.493 62.0404 129.477 64.519 132.851 68.9833C134.706 71.4375 135.849 73.9705 136.28 76.5822C136.717 79.1529 136.46 81.8257 135.509 84.6007C138.666 84.3079 141.689 84.9063 144.577 86.3958C147.471 87.8443 150.111 90.1462 152.495 93.3016C156.364 98.4203 157.961 103.474 157.288 108.463C156.638 113.434 153.789 117.827 148.74 121.643C143.738 125.423 138.757 126.947 133.798 126.215C128.844 125.442 124.441 122.507 120.591 117.412C118.206 114.257 116.7 111.098 116.074 107.936C115.429 104.751 115.691 101.671 116.857 98.6961Z" fill="black"/>
<path d="M189.02 98.3855L174.556 45.8024L162.353 49.1591L158.869 36.49L199.206 25.3943L202.691 38.0634L189.853 41.5949L204.317 94.178L189.02 98.3855Z" fill="black"/>
<path d="M264.346 65.5684L265.942 53.4563C266.922 46.0206 267.047 41.3682 266.318 39.4991C265.622 37.6049 264.04 36.4951 261.571 36.1698C259.16 35.8522 257.371 36.5326 256.204 38.211C255.038 39.8893 253.97 44.4028 253.002 51.7514L251.406 63.8636C250.45 71.125 250.313 75.7465 250.998 77.7278C251.686 79.6802 253.265 80.819 255.734 81.1443C258.174 81.4658 259.977 80.7873 261.144 79.1089C262.311 77.4305 263.378 72.917 264.346 65.5684ZM236.214 55.7008C237.278 47.626 238.346 41.768 239.416 38.1267C240.487 34.4853 241.828 31.707 243.44 29.7918C245.747 27.0817 248.549 25.2197 251.844 24.206C255.143 23.1632 258.971 22.9288 263.328 23.5028C267.714 24.0807 271.336 25.2966 274.195 27.1508C277.086 28.9797 279.295 31.5017 280.822 34.717C281.937 37.021 282.54 40.0702 282.631 43.8647C282.722 47.6591 282.237 53.5791 281.177 61.6248C280.121 69.6415 279.056 75.485 277.981 79.1554C276.91 82.7967 275.538 85.5857 273.865 87.5224C271.59 90.2072 268.803 92.0711 265.504 93.1139C262.234 94.1605 258.42 94.3968 254.063 93.8228C249.707 93.2488 246.07 92.0309 243.153 90.1691C240.237 88.3073 238.013 85.7834 236.483 82.5971C235.422 80.3298 234.846 77.2989 234.755 73.5045C234.664 69.7101 235.151 63.7755 236.214 55.7008Z" fill="black"/>
<path d="M333.663 93.8313L340.258 83.5482C344.308 77.2352 346.4 73.078 346.535 71.0764C346.711 69.066 345.751 67.3885 343.655 66.044C341.608 64.7312 339.7 64.5861 337.93 65.6088C336.16 66.6316 333.274 70.2624 329.273 76.5014L322.677 86.7845C318.722 92.9495 316.633 97.0742 316.41 99.1586C316.203 101.218 317.147 102.92 319.243 104.265C321.315 105.594 323.235 105.747 325.005 104.724C326.775 103.701 329.661 100.07 333.663 93.8313ZM312.399 72.9353C316.797 66.0799 320.254 61.2321 322.772 58.392C325.29 55.5519 327.685 53.6079 329.959 52.56C333.2 51.0887 336.527 50.5951 339.941 51.0792C343.37 51.5387 346.934 52.9548 350.633 55.3275C354.357 57.7159 357.118 60.3571 358.916 63.2509C360.755 66.1359 361.682 69.3581 361.696 72.9174C361.725 75.4768 360.974 78.4929 359.442 81.9657C357.911 85.4385 354.954 90.5903 350.573 97.4211C346.207 104.227 342.757 109.063 340.224 111.927C337.706 114.768 335.278 116.708 332.939 117.749C329.739 119.211 326.424 119.713 322.994 119.253C319.59 118.81 316.038 117.402 312.339 115.029C308.64 112.656 305.866 110.007 304.019 107.082C302.171 104.156 301.232 100.926 301.202 97.3916C301.207 94.8885 301.975 91.9005 303.506 88.4277C305.038 84.9549 308.002 79.7908 312.399 72.9353Z" fill="black"/>
<path d="M345.871 139.758L402.969 103.429L411.815 117.332L383.646 150.829C389.295 146.61 394.2 143.021 398.359 140.062C402.534 137.127 406.105 134.717 409.071 132.829L418.043 127.121L425.616 139.022L368.518 175.352L359.648 161.411L388.845 127.156C384.439 130.654 380.089 133.942 375.797 137.02C371.546 140.107 367.332 142.98 363.154 145.637L353.514 151.771L345.871 139.758Z" fill="black"/>
<path d="M376.969 204.713L405.326 200.311L441.457 178.958L444.066 195.764L423.923 205.518L446.082 208.748L448.718 225.727L407.814 216.335L379.457 220.737L376.969 204.713Z" fill="black"/>
<path d="M359 235.5C359 303.707 303.707 359 235.5 359C167.293 359 112 303.707 112 235.5C112 167.293 167.293 112 235.5 112C303.707 112 359 167.293 359 235.5Z" fill="black"/>
<path d="M58.0617 309.71L65.6331 323.199L63.7937 324.232C60.3328 326.174 58.1233 327.952 57.1651 329.565C56.207 331.178 56.2709 332.952 57.3569 334.887C58.2288 336.44 59.4485 337.368 61.016 337.671C62.6108 337.958 64.3347 337.582 66.1877 336.542C69.2398 334.828 70.938 330.991 71.2822 325.028C71.375 324.044 71.437 323.292 71.4681 322.773C71.4734 322.591 71.4932 322.275 71.5277 321.826C72.1871 313.679 73.1198 308.318 74.3256 305.742C75.2704 303.85 76.5437 302.096 78.1453 300.48C79.7469 298.864 81.6787 297.422 83.9405 296.152C89.4451 293.062 94.6592 292.232 99.5826 293.662C104.506 295.091 108.536 298.599 111.671 304.185C115.082 310.262 116.143 315.759 114.853 320.676C113.579 325.62 110.026 329.728 104.194 333.002C103.949 333.139 103.6 333.317 103.149 333.534C102.698 333.752 102.349 333.929 102.104 334.067L94.6934 320.864L95.4701 320.428C98.2224 318.883 100.062 317.277 100.99 315.61C101.933 313.969 101.945 312.332 101.028 310.697C100.248 309.307 99.1162 308.473 97.6338 308.194C96.1786 307.9 94.6335 308.212 92.9984 309.129C90.3279 310.628 88.8398 314.617 88.5343 321.096C88.4515 322.289 88.3902 323.201 88.3505 323.833C88.3466 324.337 88.3043 325.059 88.2234 326.001C87.8442 332.987 86.9427 337.829 85.5188 340.527C84.5793 342.237 83.313 343.844 81.72 345.347C80.1695 346.863 78.3179 348.225 76.165 349.433C69.8701 352.966 64.1018 354.054 58.8599 352.696C53.6181 351.338 49.2917 347.62 45.8807 341.543C42.3015 335.166 41.2309 329.46 42.6688 324.424C44.1493 319.401 48.1051 315.084 54.5363 311.474C54.9451 311.245 55.3675 311.007 55.8035 310.763C56.282 310.53 57.0348 310.179 58.0617 309.71Z" fill="black"/>
<path d="M96.1384 400.116L131.884 354.222L121.234 345.927L129.846 334.87L165.052 362.291L156.44 373.348L145.234 364.621L109.489 410.514L96.1384 400.116Z" fill="black"/>
<path d="M187.742 402.306C188.015 402.373 188.36 402.474 188.777 402.609C189.225 402.752 189.555 402.849 189.767 402.902C193.165 403.74 195.73 403.649 197.463 402.628C199.226 401.614 200.508 399.484 201.308 396.238C202.049 393.234 201.86 390.934 200.741 389.338C199.66 387.72 197.42 386.491 194.022 385.653C193.81 385.601 193.472 385.534 193.009 385.452C192.577 385.377 192.225 385.306 191.951 385.239L187.742 402.306ZM161.447 439.223L178.736 369.137L197.168 373.683C203.206 375.173 207.519 376.542 210.107 377.792C212.703 379.012 214.682 380.514 216.044 382.299C217.643 384.431 218.632 386.815 219.011 389.452C219.421 392.096 219.218 395.071 218.403 398.378C217.407 402.414 215.86 405.621 213.76 408C211.691 410.386 208.952 412.092 205.545 413.119C210.058 416.614 211.414 422.597 209.614 431.069C209.584 431.19 209.566 431.266 209.558 431.296C209.371 432.184 209.087 433.465 208.706 435.142C206.882 443.06 206.966 448.327 208.96 450.944L189.8 446.217C189.735 444.656 189.79 443.061 189.967 441.43C190.182 439.777 190.514 438.041 190.963 436.22C191.24 435.098 191.603 433.755 192.053 432.192C192.51 430.599 192.799 429.56 192.919 429.075C193.974 424.797 194.135 421.73 193.401 419.876C192.668 418.021 190.845 416.734 187.932 416.016L184.564 415.185L177.649 443.22L161.447 439.223Z" fill="black"/>
<path d="M258.81 450.605L244.743 379.801L283.272 372.147L286.003 385.894L263.934 390.278L266.519 403.29L286.887 399.243L289.709 413.45L269.341 417.496L272.41 432.944L294.479 428.56L297.338 442.951L258.81 450.605Z" fill="black"/>
<path d="M340.93 424.484L300.191 364.891L332.619 342.722L340.529 354.293L321.954 366.99L329.441 377.942L346.584 366.223L354.758 378.18L337.615 389.899L346.504 402.901L365.078 390.203L373.358 402.316L340.93 424.484Z" fill="black"/>
<path d="M411.252 360.539L362.519 328.773L355.147 340.082L343.406 332.429L367.774 295.045L379.516 302.698L371.76 314.597L420.493 346.363L411.252 360.539Z" fill="black"/>
<path d="M355.952 248C356.296 222.352 322.364 203.916 315.124 172.476C306 132.816 266.436 116 236 116C205.564 116 166.012 132.816 156.88 172.476C149.636 203.916 115.704 222.352 116.044 248L116 247.996C116 247.996 116 272.944 133.004 294.912L136.508 287.048C136.508 287.048 137.008 299.184 147.26 312.956L150.512 300.828C150.512 300.828 151.004 319.196 167.004 336.58C167.004 336.58 168.372 324.508 170.012 320.172C170.012 320.172 179.008 339.196 200 351.996C200 351.996 197.248 346.88 199.956 341.044C213.584 350.048 226.388 356 236 356C245.612 356 258.416 350.048 272.044 341.048C274.752 346.884 272 352 272 352C292.992 339.2 301.992 320.176 301.992 320.176C303.632 324.512 305.008 336.584 305.008 336.584C321 319.196 321.5 300.832 321.5 300.832L324.752 312.96C335.004 299.192 335.496 287.052 335.496 287.052L339.004 294.916C356 272.944 356 247.996 356 247.996L355.952 248ZM193.756 171.564C206.224 166.208 219.428 176.328 236 176.328C252.58 176.328 265.772 166.208 278.252 171.564C292.16 177.54 278.252 171.564 263.808 176.492C249.372 181.42 243.332 182.008 236.004 182.008C228.684 182.008 222.636 181.424 208.2 176.492C193.764 171.56 179.852 177.54 193.756 171.564ZM172.62 182.084C191.328 174.96 211.14 188.444 236 188.444C260.868 188.444 280.672 174.96 299.384 182.084C320.236 190.036 299.384 182.084 277.712 188.656C256.056 195.228 246.976 195.996 236 195.996C225.024 195.996 215.944 195.228 194.288 188.656C172.62 182.084 151.768 190.04 172.62 182.084ZM278 255.996C268.78 253.356 263.212 252.716 260.164 253.452C262.736 256.468 266.432 259.576 272.64 261.748C290.192 267.888 285.008 282.028 273.22 283.812C273.628 284.576 273.984 285.316 274.252 285.996C279.204 298.788 284 336.004 236 336.004C188 336.004 192.796 298.788 197.748 285.996C198.008 285.32 198.364 284.584 198.768 283.812C187 282.02 181.824 267.888 199.364 261.748C206.252 259.332 210.076 255.768 212.668 252.46C209.84 251.524 204.12 252.376 193.996 255.996C162.272 267.348 129.872 226.756 158 208.008C186.12 189.256 216.496 212.008 235.996 212.008C255.496 212.008 285.88 189.256 313.996 208.008C342.124 226.756 311.08 265.488 278 255.996Z" fill="white"/>
<path d="M211.6 278.188C224.764 277.736 222.508 264.044 222.02 257.804C222.02 257.804 219.912 265.896 210.668 266.212C196.812 266.696 200 278.604 211.6 278.188ZM249.976 257.804C249.492 264.044 247.232 277.732 260.396 278.188C271.996 278.604 275.192 266.696 261.332 266.212C252.092 265.9 249.976 257.804 249.976 257.804Z" fill="white"/>
<path d="M236 306.004C255.041 306.004 270.476 305.108 270.476 304.004C270.476 302.899 255.041 302.004 236 302.004C216.959 302.004 201.524 302.899 201.524 304.004C201.524 305.108 216.959 306.004 236 306.004Z" fill="white"/>
<path d="M236 219.508C192.928 219.508 158.004 220.848 158.004 222.492C158.004 223.228 164.852 223.9 176.192 224.416C177.604 235.924 187.712 244.868 200 244.868C211.92 244.868 221.784 236.452 223.66 225.452C231.889 225.509 240.119 225.509 248.348 225.452C250.22 236.452 260.088 244.868 272 244.868C284.292 244.868 294.408 235.92 295.816 224.416C307.156 223.896 314 223.224 314 222.492C314 220.848 279.072 219.508 236 219.508ZM200 234.716C194 234.716 189.064 230.44 188.18 224.86C195.196 225.072 203.136 225.24 211.764 225.344C210.688 230.688 205.836 234.716 200 234.716ZM272 234.716C266.164 234.716 261.312 230.688 260.236 225.344C268.86 225.24 276.804 225.072 283.816 224.86C282.932 230.436 278.008 234.716 272 234.716Z" fill="white"/>
<path fill-rule="evenodd" clip-rule="evenodd" d="M411.908 255.581C411.828 255.408 411.7 255.261 411.539 255.158C411.378 255.055 411.191 255 411 255C410.809 255 410.622 255.055 410.461 255.158C410.3 255.261 410.172 255.408 410.092 255.581L407.222 261.801L400.421 262.608C400.231 262.63 400.052 262.707 399.904 262.828C399.756 262.949 399.646 263.11 399.587 263.292C399.528 263.473 399.522 263.668 399.57 263.853C399.619 264.038 399.719 264.205 399.859 264.335L404.889 268.985L403.554 275.705C403.517 275.892 403.534 276.086 403.604 276.264C403.674 276.442 403.793 276.596 403.947 276.708C404.102 276.821 404.285 276.886 404.476 276.897C404.666 276.909 404.856 276.865 405.023 276.772L411 273.426L416.977 276.772C417.144 276.866 417.334 276.909 417.525 276.898C417.716 276.887 417.899 276.821 418.054 276.709C418.209 276.597 418.328 276.442 418.398 276.264C418.467 276.086 418.484 275.892 418.447 275.704L417.112 268.986L422.141 264.335C422.281 264.205 422.381 264.038 422.429 263.853C422.478 263.668 422.472 263.473 422.413 263.292C422.353 263.11 422.244 262.949 422.096 262.828C421.948 262.707 421.769 262.63 421.579 262.608L414.777 261.8L411.908 255.581Z" fill="#E0463D"/>
<path fill-rule="evenodd" clip-rule="evenodd" d="M64.9079 255.581C64.8279 255.408 64.6999 255.261 64.5389 255.158C64.378 255.055 64.191 255 63.9999 255C63.8089 255 63.6219 255.055 63.461 255.158C63.3 255.261 63.172 255.408 63.0919 255.581L60.2219 261.801L53.4209 262.608C53.2312 262.63 53.0518 262.707 52.9041 262.828C52.7564 262.949 52.6464 263.11 52.5873 263.292C52.5282 263.473 52.5223 263.668 52.5705 263.853C52.6186 264.038 52.7187 264.205 52.8589 264.335L57.8889 268.985L56.5539 275.705C56.5169 275.892 56.5342 276.086 56.6039 276.264C56.6736 276.442 56.7927 276.596 56.9472 276.708C57.1017 276.821 57.2851 276.886 57.4758 276.897C57.6664 276.909 57.8563 276.865 58.0229 276.772L63.9999 273.426L69.9769 276.772C70.1437 276.866 70.3338 276.909 70.5248 276.898C70.7157 276.887 70.8994 276.821 71.0541 276.709C71.2088 276.597 71.3281 276.442 71.3977 276.264C71.4673 276.086 71.4844 275.892 71.4469 275.704L70.1119 268.986L75.1409 264.335C75.2812 264.205 75.3813 264.038 75.4294 263.853C75.4776 263.668 75.4717 263.473 75.4126 263.292C75.3535 263.11 75.2435 262.949 75.0958 262.828C74.9481 262.707 74.7687 262.63 74.5789 262.608L67.7769 261.8L64.9079 255.581Z" fill="#E0463D"/>
</svg>
