<svg width="300" height="60" viewBox="0 0 3017 430" fill="none" xmlns="http://www.w3.org/2000/svg">
<path d="M120.6 416.8C97.4 416.8 75.2 414.2 54 409C33.2 403.8 15.2 396.8 0 388L7.2 307.6C25.2 318.8 44 327.6 63.6 334C83.6 340 102 343 118.8 343C138 343 153.6 339 165.6 331C177.6 323 183.6 312.4 183.6 299.2C183.6 288.4 179.6 280.2 171.6 274.6C163.6 268.6 151 262.2 133.8 255.4L119.4 249.4C117.4 248.6 115.2 247.8 112.8 247C110.4 245.8 107.6 244.6 104.4 243.4C82 234.2 64 225.6 50.4 217.6C36.8 209.2 25 197.6 15 182.8C5.4 168 0.6 148.8 0.6 125.2C0.6 86.7999 13.6 56.5999 39.6 34.5999C65.6 12.5999 101.8 1.59991 148.2 1.59991C183.4 1.59991 219.4 8.79992 256.2 23.1999L243 102.4C228.2 93.9999 212.2 87.3999 195 82.5999C178.2 77.7999 162.2 75.3999 147 75.3999C128.2 75.3999 113.6 79.1999 103.2 86.7999C92.8 93.9999 87.6 103.8 87.6 116.2C87.6 127 91.2 135.4 98.4 141.4C105.6 147.4 117.2 153.8 133.2 160.6L157.8 170.2C181 179 200.2 187.6 215.4 196C230.6 204.4 243.6 216.6 254.4 232.6C265.2 248.2 270.6 268.6 270.6 293.8C270.6 332.6 257.4 362.8 231 384.4C204.6 406 167.8 416.8 120.6 416.8ZM339.609 9.3999H426.609V164.2L556.809 9.3999H660.609L496.209 199L652.209 409H546.609L426.609 247.6V409H339.609V9.3999ZM830.55 418C786.55 418 752.55 407.6 728.55 386.8C704.55 366 692.55 337 692.55 299.8C692.55 277 697.15 256.6 706.35 238.6C715.55 220.2 728.95 204.8 746.55 192.4C720.95 168.8 708.15 140.6 708.15 107.8C708.15 84.9999 713.95 65.5999 725.55 49.5999C737.15 33.5999 752.75 21.3999 772.35 12.9999C791.95 4.59991 813.75 0.399902 837.75 0.399902C873.35 0.399902 902.95 9.3999 926.55 27.3999C950.15 45.3999 961.95 69.9999 961.95 101.2C961.95 119.2 957.95 136.4 949.95 152.8C941.95 168.8 930.95 183.4 916.95 196.6C935.35 208.2 949.75 222 960.15 238C970.95 254 976.35 273.8 976.35 297.4C976.35 333.8 963.35 363 937.35 385C911.35 407 875.75 418 830.55 418ZM859.95 167.2C867.15 160.4 872.75 152.4 876.75 143.2C880.75 133.6 882.75 124 882.75 114.4C882.75 99.5999 877.75 88.5999 867.75 81.3999C858.15 73.7999 846.75 69.9999 833.55 69.9999C821.55 69.9999 811.15 72.9999 802.35 78.9999C793.95 84.9999 789.75 93.7999 789.75 105.4C789.75 119 795.35 130 806.55 138.4C818.15 146.8 835.95 156.4 859.95 167.2ZM836.55 347.8C854.95 347.8 869.15 344 879.15 336.4C889.55 328.4 894.75 317.6 894.75 304C894.75 288.8 888.95 276.8 877.35 268C866.15 258.8 848.35 248.8 823.95 238L801.75 227.8C791.75 237 784.15 247.4 778.95 259C774.15 270.2 771.75 281.4 771.75 292.6C771.75 309.8 777.35 323.4 788.55 333.4C800.15 343 816.15 347.8 836.55 347.8ZM1130.28 84.9999H1021.08V9.3999H1325.88V84.9999H1217.88V409H1130.28V84.9999ZM1551.46 416.8C1512.26 416.8 1477.66 408.2 1447.66 391C1417.66 373.8 1394.26 349.6 1377.46 318.4C1361.06 287.2 1352.86 251.4 1352.86 211C1352.86 170.2 1361.06 134.2 1377.46 103C1393.86 71.7999 1417.06 47.5999 1447.06 30.3999C1477.06 13.1999 1511.86 4.59991 1551.46 4.59991C1590.66 4.59991 1625.26 13.1999 1655.26 30.3999C1685.26 47.1999 1708.46 70.9999 1724.86 101.8C1741.26 132.6 1749.46 168.2 1749.46 208.6C1749.46 249.8 1741.26 286.2 1724.86 317.8C1708.46 349 1685.26 373.4 1655.26 391C1625.26 408.2 1590.66 416.8 1551.46 416.8ZM1551.46 340.6C1584.26 340.6 1610.46 328.8 1630.06 305.2C1650.06 281.6 1660.06 250.2 1660.06 211C1660.06 185.4 1655.46 162.8 1646.26 143.2C1637.46 123.2 1624.66 108 1607.86 97.5999C1591.46 86.7999 1572.66 81.3999 1551.46 81.3999C1530.26 81.3999 1511.26 86.7999 1494.46 97.5999C1478.06 108 1465.26 123.2 1456.06 143.2C1447.26 162.8 1442.86 185.4 1442.86 211C1442.86 236.6 1447.26 259.2 1456.06 278.8C1465.26 298.4 1478.06 313.6 1494.46 324.4C1510.86 335.2 1529.86 340.6 1551.46 340.6ZM2004.98 416.8C1965.78 416.8 1931.18 408.2 1901.18 391C1871.18 373.8 1847.78 349.6 1830.98 318.4C1814.58 287.2 1806.38 251.4 1806.38 211C1806.38 170.2 1814.58 134.2 1830.98 103C1847.38 71.7999 1870.58 47.5999 1900.58 30.3999C1930.58 13.1999 1965.38 4.59991 2004.98 4.59991C2044.18 4.59991 2078.78 13.1999 2108.78 30.3999C2138.78 47.1999 2161.98 70.9999 2178.38 101.8C2194.78 132.6 2202.98 168.2 2202.98 208.6C2202.98 249.8 2194.78 286.2 2178.38 317.8C2161.98 349 2138.78 373.4 2108.78 391C2078.78 408.2 2044.18 416.8 2004.98 416.8ZM2004.98 340.6C2037.78 340.6 2063.98 328.8 2083.58 305.2C2103.58 281.6 2113.58 250.2 2113.58 211C2113.58 185.4 2108.98 162.8 2099.78 143.2C2090.98 123.2 2078.18 108 2061.38 97.5999C2044.98 86.7999 2026.18 81.3999 2004.98 81.3999C1983.78 81.3999 1964.78 86.7999 1947.98 97.5999C1931.58 108 1918.78 123.2 1909.58 143.2C1900.78 162.8 1896.38 185.4 1896.38 211C1896.38 236.6 1900.78 259.2 1909.58 278.8C1918.78 298.4 1931.58 313.6 1947.98 324.4C1964.38 335.2 1983.38 340.6 2004.98 340.6ZM2269.1 9.3999H2371.1L2536.7 289.6V9.3999H2616.5V409H2515.7L2348.9 127V409H2269.1V9.3999ZM2795.15 242.8L2661.35 9.3999H2759.15L2840.15 167.2L2920.55 9.3999H3016.55L2882.15 242.8V409H2795.15V242.8Z" fill="white"/>
<path d="M1554 427.261C1671.23 427.261 1766.26 332.229 1766.26 215C1766.26 97.7717 1671.23 2.73926 1554 2.73926C1436.77 2.73926 1341.74 97.7717 1341.74 215C1341.74 332.229 1436.77 427.261 1554 427.261Z" fill="#D9D9D9"/>
<path d="M1554 427.5C1671.36 427.5 1766.5 332.361 1766.5 215C1766.5 97.6395 1671.36 2.5 1554 2.5C1436.64 2.5 1341.5 97.6395 1341.5 215C1341.5 332.361 1436.64 427.5 1554 427.5Z" stroke="black" stroke-width="5"/>
<path d="M1554.46 416.306C1665.39 416.306 1755.31 326.383 1755.31 215.457C1755.31 104.531 1665.39 14.6079 1554.46 14.6079C1443.53 14.6079 1353.61 104.531 1353.61 215.457C1353.61 326.383 1443.53 416.306 1554.46 416.306Z" fill="white"/>
<path d="M1677.7 215.456C1677.7 283.525 1622.52 338.705 1554.46 338.705C1486.39 338.705 1431.21 283.525 1431.21 215.456C1431.21 147.388 1486.39 92.208 1554.46 92.208C1622.52 92.208 1677.7 147.388 1677.7 215.456Z" fill="#D9D9D9"/>
<path d="M1669.05 215.456C1669.05 278.746 1617.75 330.053 1554.46 330.053C1491.17 330.053 1439.86 278.746 1439.86 215.456C1439.86 152.167 1491.17 100.86 1554.46 100.86C1617.75 100.86 1669.05 152.167 1669.05 215.456Z" stroke="black" stroke-width="10"/>
<path d="M1400.61 212.716L1402.56 198.346L1404.52 198.612C1408.21 199.112 1410.87 199.029 1412.5 198.363C1414.12 197.696 1415.08 196.333 1415.36 194.272C1415.58 192.617 1415.19 191.234 1414.19 190.122C1413.16 189.006 1411.66 188.315 1409.68 188.047C1406.43 187.606 1402.99 189.519 1399.37 193.788C1398.74 194.472 1398.27 194.999 1397.96 195.37C1397.85 195.504 1397.66 195.729 1397.38 196.045C1392.28 201.77 1388.56 205.256 1386.2 206.503C1384.43 207.386 1382.48 207.98 1380.37 208.285C1378.26 208.59 1376 208.579 1373.59 208.252C1367.73 207.456 1363.36 205.134 1360.48 201.284C1357.6 197.435 1356.56 192.534 1357.37 186.583C1358.25 180.109 1360.56 175.396 1364.3 172.445C1368.05 169.464 1373.03 168.395 1379.24 169.238C1379.5 169.273 1379.86 169.337 1380.32 169.429C1380.78 169.521 1381.14 169.585 1381.4 169.62L1379.5 183.686L1378.67 183.574C1375.74 183.176 1373.45 183.339 1371.82 184.063C1370.18 184.758 1369.25 185.977 1369.01 187.719C1368.81 189.199 1369.19 190.462 1370.14 191.508C1371.06 192.55 1372.4 193.189 1374.14 193.425C1376.98 193.811 1380.35 191.666 1384.24 186.99C1384.97 186.144 1385.53 185.495 1385.92 185.045C1386.21 184.67 1386.65 184.153 1387.24 183.494C1391.47 178.48 1394.87 175.365 1397.46 174.15C1399.13 173.4 1400.99 172.913 1403.03 172.687C1405.04 172.428 1407.2 172.455 1409.49 172.766C1416.2 173.675 1421.13 176.118 1424.29 180.094C1427.44 184.07 1428.58 189.295 1427.7 195.769C1426.78 202.562 1424.36 207.438 1420.44 210.395C1416.5 213.319 1411.1 214.316 1404.25 213.386C1403.81 213.327 1403.36 213.266 1402.9 213.203C1402.41 213.107 1401.65 212.945 1400.61 212.716Z" fill="black"/>
<path d="M1433.77 164.301L1375.38 130.094L1383.37 116.443L1407.6 130.637L1389.35 106.243L1397.52 92.2891L1415.66 119.925L1456.09 126.193L1447.7 140.526L1422.38 135.32L1426.22 141.543L1441.77 150.65L1433.77 164.301Z" fill="black"/>
<path d="M1443.29 74.2821C1444.78 76.2451 1446.35 77.5311 1448.03 78.1411C1449.7 78.7501 1451.15 78.5861 1452.39 77.6501C1453.65 76.6961 1454.22 75.3321 1454.09 73.5571C1453.98 71.7641 1453.19 69.8861 1451.71 67.9231C1450.22 65.9601 1448.71 64.7351 1447.17 64.2481C1445.63 63.7201 1444.18 63.9691 1442.83 64.9931C1441.5 66.0001 1440.87 67.3151 1440.96 68.9381C1441.03 70.5371 1441.81 72.3181 1443.29 74.2821ZM1460.81 97.8961C1462.8 100.537 1464.65 102.247 1466.34 103.026C1468.05 103.787 1469.63 103.621 1471.08 102.525C1472.58 101.395 1473.2 99.9341 1472.95 98.1421C1472.72 96.3321 1471.57 94.0601 1469.5 91.3251C1467.35 88.4741 1465.44 86.6821 1463.79 85.9491C1462.14 85.1761 1460.56 85.3551 1459.07 86.4851C1457.55 87.6331 1456.93 89.1151 1457.2 90.9301C1457.47 92.7461 1458.67 95.0681 1460.81 97.8961ZM1446.2 88.9931C1443.27 89.1501 1440.62 88.6761 1438.24 87.5721C1435.87 86.4261 1433.76 84.6261 1431.9 82.1721C1428.53 77.7081 1427.22 73.2061 1427.98 68.6691C1428.76 64.1131 1431.52 60.0421 1436.27 56.4571C1441.01 52.8711 1445.67 51.3331 1450.24 51.8441C1454.84 52.3371 1458.82 54.8161 1462.2 59.2801C1464.05 61.7341 1465.19 64.2671 1465.62 66.8791C1466.06 69.4501 1465.8 72.1231 1464.85 74.8981C1468.01 74.6051 1471.03 75.2031 1473.92 76.6931C1476.82 78.1411 1479.46 80.4431 1481.84 83.5981C1485.71 88.7171 1487.31 93.7711 1486.63 98.7601C1485.98 103.731 1483.13 108.124 1478.08 111.939C1473.08 115.719 1468.1 117.243 1463.14 116.511C1458.19 115.739 1453.79 112.804 1449.94 107.709C1447.55 104.554 1446.04 101.395 1445.42 98.2331C1444.77 95.0481 1445.03 91.9681 1446.2 88.9931Z" fill="black"/>
<path d="M1513.4 91.9851L1498.94 39.4022L1486.74 42.7592L1483.25 30.0891L1523.59 18.9941L1527.07 31.6631L1514.24 35.1942L1528.7 87.7772L1513.4 91.9851Z" fill="black"/>
<path d="M1583.19 60.3979L1584.79 48.2859C1585.76 40.8499 1585.89 36.1979 1585.16 34.3289C1584.47 32.4339 1582.88 31.3249 1580.41 30.9989C1578 30.6819 1576.21 31.3619 1575.05 33.0399C1573.88 34.7189 1572.81 39.2319 1571.85 46.5809L1570.25 58.6929C1569.29 65.9539 1569.16 70.5759 1569.84 72.5569C1570.53 74.5099 1572.11 75.6479 1574.58 75.9739C1577.02 76.2949 1578.82 75.6169 1579.99 73.9379C1581.15 72.2599 1582.22 67.7459 1583.19 60.3979ZM1555.06 50.5299C1556.12 42.4559 1557.19 36.5969 1558.26 32.9559C1559.33 29.3149 1560.67 26.5369 1562.28 24.6209C1564.59 21.9109 1567.39 20.0489 1570.69 19.0349C1573.99 17.9929 1577.81 17.7579 1582.17 18.3319C1586.56 18.9099 1590.18 20.1259 1593.04 21.9799C1595.93 23.8089 1598.14 26.3309 1599.67 29.5459C1600.78 31.8499 1601.38 34.8999 1601.47 38.6939C1601.57 42.4889 1601.08 48.4089 1600.02 56.4539C1598.96 64.4709 1597.9 70.3139 1596.82 73.9849C1595.75 77.6259 1594.38 80.4149 1592.71 82.3519C1590.43 85.0369 1587.65 86.9009 1584.35 87.9429C1581.08 88.9899 1577.26 89.2259 1572.91 88.6519C1568.55 88.0779 1564.91 86.8599 1562 84.9989C1559.08 83.1369 1556.86 80.6129 1555.33 77.4269C1554.27 75.1589 1553.69 72.1279 1553.6 68.3339C1553.51 64.5399 1553.99 58.6049 1555.06 50.5299Z" fill="black"/>
<path d="M1645.97 87.3629L1652.57 77.0799C1656.62 70.7669 1658.71 66.6089 1658.84 64.6079C1659.02 62.5969 1658.06 60.9199 1655.96 59.5749C1653.92 58.2629 1652.01 58.1169 1650.24 59.1399C1648.47 60.1629 1645.58 63.7939 1641.58 70.0329L1634.99 80.3159C1631.03 86.4809 1628.94 90.6059 1628.72 92.6899C1628.51 94.7499 1629.46 96.4519 1631.55 97.7959C1633.62 99.1249 1635.54 99.2779 1637.31 98.2549C1639.08 97.2319 1641.97 93.6019 1645.97 87.3629ZM1624.71 66.4669C1629.11 59.6109 1632.56 54.7629 1635.08 51.9229C1637.6 49.0829 1639.99 47.1389 1642.27 46.0909C1645.51 44.6199 1648.84 44.1259 1652.25 44.6109C1655.68 45.0699 1659.24 46.4859 1662.94 48.8589C1666.67 51.2469 1669.43 53.8879 1671.23 56.7819C1673.06 59.6669 1673.99 62.8889 1674.01 66.4489C1674.03 69.0079 1673.28 72.0239 1671.75 75.4969C1670.22 78.9699 1667.26 84.1219 1662.88 90.9519C1658.52 97.7589 1655.07 102.594 1652.53 105.459C1650.02 108.299 1647.59 110.239 1645.25 111.28C1642.05 112.743 1638.73 113.244 1635.3 112.785C1631.9 112.341 1628.35 110.933 1624.65 108.56C1620.95 106.188 1618.18 103.539 1616.33 100.613C1614.48 97.6879 1613.54 94.4579 1613.51 90.9229C1613.52 88.4199 1614.28 85.4319 1615.82 81.9589C1617.35 78.4859 1620.31 73.3219 1624.71 66.4669Z" fill="black"/>
<path d="M1652.85 129.377L1709.95 93.0479L1718.79 106.951L1690.62 140.448C1696.27 136.229 1701.18 132.64 1705.34 129.681C1709.51 126.747 1713.08 124.336 1716.05 122.449L1725.02 116.74L1732.59 128.641L1675.5 164.971L1666.63 151.03L1695.82 116.775C1691.42 120.273 1687.07 123.561 1682.78 126.639C1678.52 129.726 1674.31 132.599 1670.13 135.257L1660.49 141.39L1652.85 129.377Z" fill="black"/>
<path d="M1680.81 188.573L1709.17 184.17L1745.3 162.818L1747.91 179.624L1727.76 189.377L1749.92 192.608L1752.56 209.587L1711.66 200.194L1683.3 204.597L1680.81 188.573Z" fill="black"/>
<path d="M1666.75 215C1666.75 277.27 1616.27 327.749 1554 327.749C1491.73 327.749 1441.25 277.27 1441.25 215C1441.25 152.73 1491.73 102.25 1554 102.25C1616.27 102.25 1666.75 152.73 1666.75 215Z" fill="black"/>
<path d="M1391.4 283.458L1398.97 296.947L1397.13 297.979C1393.67 299.922 1391.46 301.7 1390.5 303.313C1389.54 304.925 1389.61 306.699 1390.69 308.634C1391.56 310.187 1392.78 311.115 1394.35 311.418C1395.95 311.706 1397.67 311.329 1399.52 310.289C1402.58 308.576 1404.27 304.738 1404.62 298.775C1404.71 297.791 1404.77 297.04 1404.8 296.521C1404.81 296.339 1404.83 296.023 1404.86 295.573C1405.52 287.427 1406.46 282.065 1407.66 279.489C1408.61 277.597 1409.88 275.843 1411.48 274.228C1413.08 272.612 1415.01 271.169 1417.28 269.9C1422.78 266.81 1427.99 265.98 1432.92 267.409C1437.84 268.838 1441.87 272.346 1445.01 277.933C1448.42 284.009 1449.48 289.506 1448.19 294.423C1446.91 299.367 1443.36 303.476 1437.53 306.749C1437.28 306.887 1436.94 307.064 1436.48 307.282C1436.03 307.499 1435.68 307.677 1435.44 307.814L1428.03 294.611L1428.81 294.176C1431.56 292.631 1433.4 291.025 1434.33 289.357C1435.27 287.717 1435.28 286.079 1434.36 284.444C1433.58 283.055 1432.45 282.22 1430.97 281.941C1429.51 281.647 1427.97 281.959 1426.33 282.877C1423.66 284.376 1422.18 288.365 1421.87 294.843C1421.79 296.037 1421.73 296.949 1421.69 297.58C1421.68 298.084 1421.64 298.807 1421.56 299.748C1421.18 306.734 1420.28 311.576 1418.85 314.275C1417.91 315.985 1416.65 317.591 1415.06 319.095C1413.5 320.61 1411.65 321.972 1409.5 323.18C1403.21 326.714 1397.44 327.801 1392.2 326.443C1386.95 325.085 1382.63 321.368 1379.22 315.291C1375.64 308.914 1374.57 303.208 1376 298.172C1377.48 293.148 1381.44 288.831 1387.87 285.222C1388.28 284.992 1388.7 284.755 1389.14 284.51C1389.62 284.277 1390.37 283.927 1391.4 283.458Z" fill="black"/>
<path d="M1425.93 368.444L1461.67 322.551L1451.02 314.255L1459.64 303.198L1494.84 330.619L1486.23 341.677L1475.02 332.949L1439.28 378.842L1425.93 368.444Z" fill="black"/>
<path d="M1512.46 367.114C1512.74 367.182 1513.08 367.283 1513.5 367.418C1513.95 367.561 1514.28 367.658 1514.49 367.711C1517.89 368.549 1520.45 368.457 1522.18 367.436C1523.95 366.423 1525.23 364.293 1526.03 361.046C1526.77 358.043 1526.58 355.743 1525.46 354.147C1524.38 352.529 1522.14 351.3 1518.74 350.462C1518.53 350.41 1518.19 350.343 1517.73 350.261C1517.3 350.186 1516.95 350.115 1516.67 350.048L1512.46 367.114ZM1486.17 404.032L1503.46 333.945L1521.89 338.492C1527.93 339.982 1532.24 341.351 1534.83 342.601C1537.42 343.821 1539.4 345.323 1540.77 347.108C1542.36 349.24 1543.35 351.624 1543.73 354.261C1544.14 356.905 1543.94 359.88 1543.12 363.187C1542.13 367.222 1540.58 370.43 1538.48 372.808C1536.41 375.195 1533.67 376.901 1530.27 377.927C1534.78 381.422 1536.14 387.406 1534.34 395.878C1534.31 395.999 1534.29 396.075 1534.28 396.105C1534.09 396.992 1533.81 398.274 1533.43 399.95C1531.6 407.869 1531.69 413.136 1533.68 415.752L1514.52 411.026C1514.46 409.465 1514.51 407.869 1514.69 406.239C1514.9 404.586 1515.23 402.85 1515.68 401.029C1515.96 399.907 1516.32 398.564 1516.77 397.001C1517.23 395.408 1517.52 394.369 1517.64 393.883C1518.69 389.605 1518.86 386.539 1518.12 384.684C1517.39 382.83 1515.57 381.543 1512.65 380.825L1509.29 379.994L1502.37 408.029L1486.17 404.032Z" fill="black"/>
<path d="M1576.37 414.232L1562.3 343.428L1600.83 335.774L1603.56 349.521L1581.49 353.905L1584.08 366.916L1604.44 362.87L1607.27 377.077L1586.9 381.123L1589.97 396.571L1612.04 392.187L1614.9 406.577L1576.37 414.232Z" fill="black"/>
<path d="M1652.37 389.729L1611.63 330.135L1644.06 307.967L1651.97 319.538L1633.4 332.235L1640.88 343.187L1658.03 331.468L1666.2 343.425L1649.06 355.144L1657.94 368.146L1676.52 355.448L1684.8 367.561L1652.37 389.729Z" fill="black"/>
<path d="M1717.67 329.727L1668.94 297.961L1661.57 309.27L1649.82 301.617L1674.19 264.233L1685.93 271.886L1678.18 283.785L1726.91 315.551L1717.67 329.727Z" fill="black"/>
<path d="M1663.97 226.412C1664.28 202.997 1633.3 186.165 1626.69 157.462C1618.36 121.255 1582.24 105.902 1554.46 105.902C1526.67 105.902 1490.56 121.255 1482.22 157.462C1475.61 186.165 1444.63 202.997 1444.94 226.412L1444.9 226.408C1444.9 226.408 1444.9 249.185 1460.43 269.24L1463.63 262.061C1463.63 262.061 1464.08 273.14 1473.44 285.714L1476.41 274.641C1476.41 274.641 1476.86 291.41 1491.47 307.281C1491.47 307.281 1492.72 296.26 1494.21 292.301C1494.21 292.301 1502.43 309.669 1521.59 321.355C1521.59 321.355 1519.08 316.685 1521.55 311.357C1533.99 319.577 1545.68 325.011 1554.46 325.011C1563.23 325.011 1574.92 319.577 1587.36 311.36C1589.84 316.688 1587.32 321.359 1587.32 321.359C1606.49 309.673 1614.7 292.305 1614.7 292.305C1616.2 296.264 1617.46 307.285 1617.46 307.285C1632.06 291.41 1632.51 274.645 1632.51 274.645L1635.48 285.717C1644.84 273.148 1645.29 262.064 1645.29 262.064L1648.49 269.244C1664.01 249.185 1664.01 226.408 1664.01 226.408L1663.97 226.412ZM1515.89 156.63C1527.27 151.74 1539.33 160.979 1554.46 160.979C1569.59 160.979 1581.64 151.74 1593.03 156.63C1605.73 162.085 1593.03 156.63 1579.84 161.129C1566.66 165.628 1561.15 166.164 1554.46 166.164C1547.78 166.164 1542.26 165.631 1529.08 161.129C1515.9 156.626 1503.2 162.085 1515.89 156.63ZM1496.59 166.234C1513.67 159.73 1531.76 172.04 1554.46 172.04C1577.16 172.04 1595.24 159.73 1612.32 166.234C1631.36 173.494 1612.32 166.234 1592.54 172.234C1572.77 178.234 1564.48 178.935 1554.46 178.935C1544.44 178.935 1536.15 178.234 1516.38 172.234C1496.59 166.234 1477.56 173.497 1496.59 166.234ZM1592.8 233.712C1584.38 231.302 1579.3 230.717 1576.52 231.389C1578.87 234.143 1582.24 236.98 1587.91 238.963C1603.93 244.569 1599.2 257.478 1588.44 259.106C1588.81 259.804 1589.13 260.48 1589.38 261.1C1593.9 272.779 1598.28 306.755 1554.46 306.755C1510.63 306.755 1515.01 272.779 1519.53 261.1C1519.77 260.483 1520.1 259.811 1520.47 259.106C1509.72 257.47 1505 244.569 1521.01 238.963C1527.3 236.757 1530.79 233.504 1533.16 230.484C1530.57 229.629 1525.35 230.407 1516.11 233.712C1487.15 244.076 1457.57 207.017 1483.25 189.901C1508.92 172.781 1536.65 193.553 1554.45 193.553C1572.26 193.553 1599.99 172.781 1625.66 189.901C1651.34 207.017 1623 242.378 1592.8 233.712Z" fill="white"/>
<path d="M1532.18 253.972C1544.2 253.559 1542.14 241.059 1541.69 235.362C1541.69 235.362 1539.77 242.75 1531.33 243.038C1518.68 243.48 1521.59 254.352 1532.18 253.972ZM1567.22 235.362C1566.77 241.059 1564.71 253.556 1576.73 253.972C1587.32 254.352 1590.24 243.48 1577.58 243.038C1569.15 242.754 1567.22 235.362 1567.22 235.362Z" fill="white"/>
<path d="M1554.46 279.367C1571.84 279.367 1585.93 278.549 1585.93 277.541C1585.93 276.532 1571.84 275.715 1554.46 275.715C1537.07 275.715 1522.98 276.532 1522.98 277.541C1522.98 278.549 1537.07 279.367 1554.46 279.367Z" fill="white"/>
<path d="M1554.46 200.4C1515.13 200.4 1483.25 201.623 1483.25 203.124C1483.25 203.796 1489.5 204.41 1499.85 204.881C1501.14 215.387 1510.37 223.552 1521.59 223.552C1532.47 223.552 1541.48 215.869 1543.19 205.826C1550.7 205.879 1558.22 205.879 1565.73 205.826C1567.44 215.869 1576.45 223.552 1587.32 223.552C1598.54 223.552 1607.78 215.383 1609.07 204.881C1619.42 204.406 1625.67 203.792 1625.67 203.124C1625.67 201.623 1593.78 200.4 1554.46 200.4ZM1521.59 214.284C1516.11 214.284 1511.61 210.38 1510.8 205.286C1517.2 205.48 1524.45 205.633 1532.33 205.728C1531.35 210.607 1526.92 214.284 1521.59 214.284ZM1587.32 214.284C1581.99 214.284 1577.56 210.607 1576.58 205.728C1584.46 205.633 1591.71 205.48 1598.11 205.286C1597.3 210.377 1592.81 214.284 1587.32 214.284Z" fill="white"/>
<mask id="mask0_166_2" style="mask-type:luminance" maskUnits="userSpaceOnUse" x="1703" y="231" width="23" height="23">
<path d="M1725.18 231.89H1703.27V253.801H1725.18V231.89Z" fill="white"/>
</mask>
<g mask="url(#mask0_166_2)">
<path fill-rule="evenodd" clip-rule="evenodd" d="M1715.05 233.333C1714.98 233.175 1714.86 233.04 1714.72 232.946C1714.57 232.852 1714.4 232.802 1714.22 232.802C1714.05 232.802 1713.88 232.852 1713.73 232.946C1713.58 233.04 1713.47 233.175 1713.39 233.333L1710.77 239.011L1704.56 239.748C1704.39 239.769 1704.23 239.838 1704.09 239.949C1703.96 240.06 1703.86 240.207 1703.8 240.372C1703.75 240.538 1703.74 240.716 1703.79 240.885C1703.83 241.054 1703.92 241.206 1704.05 241.325L1708.64 245.57L1707.43 251.705C1707.39 251.876 1707.41 252.053 1707.47 252.216C1707.53 252.378 1707.64 252.519 1707.78 252.621C1707.93 252.724 1708.09 252.783 1708.27 252.794C1708.44 252.804 1708.61 252.764 1708.77 252.679L1714.22 249.625L1719.68 252.679C1719.83 252.765 1720.01 252.805 1720.18 252.795C1720.35 252.784 1720.52 252.724 1720.66 252.622C1720.8 252.519 1720.91 252.378 1720.98 252.216C1721.04 252.053 1721.06 251.875 1721.02 251.704L1719.8 245.571L1724.39 241.325C1724.52 241.206 1724.61 241.054 1724.66 240.885C1724.7 240.716 1724.7 240.538 1724.64 240.372C1724.59 240.207 1724.49 240.06 1724.35 239.949C1724.22 239.838 1724.05 239.769 1723.88 239.748L1717.67 239.011L1715.05 233.333Z" fill="#E0463D"/>
</g>
<mask id="mask1_166_2" style="mask-type:luminance" maskUnits="userSpaceOnUse" x="1386" y="231" width="23" height="23">
<path d="M1408.38 231.89H1386.47V253.801H1408.38V231.89Z" fill="white"/>
</mask>
<g mask="url(#mask1_166_2)">
<path fill-rule="evenodd" clip-rule="evenodd" d="M1398.26 233.333C1398.18 233.175 1398.07 233.04 1397.92 232.946C1397.77 232.852 1397.6 232.802 1397.43 232.802C1397.25 232.802 1397.08 232.852 1396.94 232.946C1396.79 233.04 1396.67 233.175 1396.6 233.333L1393.98 239.011L1387.77 239.748C1387.6 239.769 1387.43 239.838 1387.3 239.949C1387.16 240.06 1387.06 240.207 1387.01 240.372C1386.96 240.538 1386.95 240.716 1386.99 240.885C1387.04 241.054 1387.13 241.206 1387.26 241.325L1391.85 245.57L1390.63 251.705C1390.6 251.876 1390.61 252.053 1390.68 252.216C1390.74 252.378 1390.85 252.519 1390.99 252.621C1391.13 252.724 1391.3 252.783 1391.47 252.794C1391.65 252.804 1391.82 252.764 1391.97 252.679L1397.43 249.625L1402.89 252.679C1403.04 252.765 1403.21 252.805 1403.39 252.795C1403.56 252.784 1403.73 252.724 1403.87 252.622C1404.01 252.519 1404.12 252.378 1404.18 252.216C1404.25 252.053 1404.26 251.875 1404.23 251.704L1403.01 245.571L1407.6 241.325C1407.73 241.206 1407.82 241.054 1407.86 240.885C1407.91 240.716 1407.9 240.538 1407.85 240.372C1407.79 240.207 1407.69 240.06 1407.56 239.949C1407.42 239.838 1407.26 239.769 1407.09 239.748L1400.88 239.011L1398.26 233.333Z" fill="#E0463D"/>
</g>
</svg>